<?xml version="1.0" encoding="UTF-8"?>
<svg id="Calque_2" data-name="Calque 2" xmlns="http://www.w3.org/2000/svg" viewBox="0 0 532 532">
  <g id="Calque_1-2" data-name="Calque 1">
    <path d="m266,532C119.33,532,0,412.67,0,266S119.33,0,266,0s266,119.33,266,266-119.33,266-266,266Zm0-509.36c-134.19,0-243.36,109.18-243.36,243.36s109.17,243.36,243.36,243.36,243.36-109.18,243.36-243.36S400.19,22.64,266,22.64h0Z"/>
    <path d="m266,430.13c-6.25,0-11.32-5.07-11.32-11.32V113.19c0-6.25,5.07-11.32,11.32-11.32s11.32,5.07,11.32,11.32v305.62c0,6.25-5.07,11.32-11.32,11.32Z"/>
    <path d="m418.81,277.32H113.19c-6.25,0-11.32-5.07-11.32-11.32s5.07-11.32,11.32-11.32h305.62c6.25,0,11.32,5.07,11.32,11.32s-5.07,11.32-11.32,11.32Z"/>
  </g>
</svg>