<?xml version="1.0" encoding="UTF-8"?>
<svg id="Calque_1" data-name="Calque 1" xmlns="http://www.w3.org/2000/svg" viewBox="0 0 1920 1080">
  <defs>
    <style>
      .cls-1 {
        fill: #2870a0;
      }

      .cls-2 {
        fill: none;
      }
    </style>
  </defs>
  <path class="cls-2" d="m1378.99,408.81c-5.06,1.39-10.09,2.71-15.12,4.05,4.93-.58,10.01-2.02,15.12-4.05Z"/>
  <path class="cls-2" d="m1399.03,552.16c-33.23-1.12-68.63,36.24-69.52,73.37-.89,37.06,32.23,75.54,66.09,76.79,41.38,1.52,78.33-35.86,79.64-80.58,1.02-34.72-35.67-68.22-76.21-69.59Z"/>
  <path class="cls-2" d="m1225.72,663.3c-57.87,19.91-116.08,38.55-176.13,51.07-56.38,11.76-111.54,16.3-169.35,2.02-62.06-15.33-122.52-34.74-183.01-54.64-8.43-2.77-17.84-7.36-24.38,1.44-4.58,6.15,2.01,11.76,6.19,16.3,76.5,83.26,165.03,143.58,288.45,149.26,110.51-5.94,198.98-64.15,276-144.78,5.41-5.67,11.12-12.99,6.25-20.27-6.61-9.87-15.87-3.21-24.02-.41Z"/>
  <path class="cls-2" d="m521.91,551.47c-37.71-.03-77.17,39.29-76.74,76.45.43,37.49,40.55,75.91,78.15,74.86,36.74-1.03,72.95-39.16,72.44-76.3-.51-37.51-37.41-74.99-73.85-75.01Z"/>
  <path class="cls-2" d="m563.26,412.07c-4.23-1.34-7.96-2.57-11.06-3.61,3.67,1.38,7.41,2.7,11.06,3.61Z"/>
  <path class="cls-1" d="m1569.63,441.94c24.53-.01,68.36-47.82,66.5-72.35-2.55-33.69-18.8-57.82-55.97-67.58-25.76-6.76-50.66-4.54-75.89-5.05-19.86-.41-32.36-3.81-39.44-26.21-12.49-39.56-29.82-77.6-45.17-116.26-29.13-73.4-75.02-123.26-159.54-135.93C1149.78,2.02,1038.85,1.23,928.23.05c-46.41-.5-94.06,2.89-141.1,5.5-33.1,1.84-66.43,3.6-99.06,8.98-95.79,15.81-169.33,59.46-196.01,160.67-6.13,23.28-20.94,44.49-25.63,67.89-9.07,45.17-33.91,57.12-78.26,54.52-68.68-4.03-101.59,20.57-104.2,67.64-2.76,49.83,28.19,74.95,102.05,79.98-4.67,37.86-26.31,67.83-33.4,103.12-29.55,147.08-11.75,295.54-13.71,443.27-.94,70.59,79.09,109.84,140.73,75.12,39.52-22.27,50.05-58.85,49.59-100.82-.19-16.93-2.77-34.28,24.96-30.13,127.91,19.13,256.77,22.13,385.88,22.66,134.29.56,268.36-2.4,401.88-17.44,30.08-3.39,60.97-20.8,57.11,35.57-4.24,61.95,36.95,103.64,92.11,103.41,52.51-.22,92.42-45.22,92.67-105.54.35-86.95-.93-173.91.4-260.84,1.23-80.94-6.57-160.14-37.44-235.67-10.03-24.54-8.51-35.99,22.82-36Zm-1042.95-71.25c23.39-68.47,51.45-135.35,66.98-206.53,5.54-25.4,25.36-40.12,52.75-43.08,103.81-11.25,207.6-22.58,308.77-16.08,102.95-5.27,201.67,4.21,300.47,13.15,40.2,3.64,65.23,19.99,76.97,61.04,17.49,61.16,39.19,121.17,60.48,181.18,7.45,21.01,7.75,39.75-14.11,48.45-5.11,2.03-10.19,3.47-15.12,4.05-403.93,107.1-715.11,26.34-800.61-.79-3.65-.91-7.39-2.24-11.06-3.61-8.19-2.77-12.44-4.42-12.44-4.42-17.44-4.96-18.6-17.2-13.08-33.34Zm-3.35,332.1c-37.6,1.05-77.72-37.38-78.15-74.86-.43-37.16,39.04-76.48,76.74-76.45,36.44.03,73.33,37.5,73.85,75.01.51,37.14-35.69,75.28-72.44,76.3Zm720.16-18.81c-77.02,80.63-165.49,138.84-276,144.78-123.42-5.68-211.96-66-288.45-149.26-4.17-4.54-10.76-10.15-6.19-16.3,6.55-8.8,15.95-4.21,24.38-1.44,60.49,19.9,120.95,39.31,183.01,54.64,57.82,14.28,112.97,9.74,169.35-2.02,60.05-12.52,118.26-31.16,176.13-51.07,8.15-2.8,17.41-9.47,24.02.41,4.87,7.28-.84,14.6-6.25,20.27Zm152.11,18.35c-33.86-1.25-66.97-39.73-66.09-76.79.89-37.13,36.29-74.49,69.52-73.37,40.54,1.37,77.23,34.86,76.21,69.59-1.31,44.72-38.26,82.1-79.64,80.58Z"/>
  <path class="cls-1" d="m684.7,465.03s-13.78-109.7,16.52-132.7c30.3-22.99,71.19-39.36,109.02-34.77,37.83,4.6,70.54,41.13,72.31,52.97s1.82,120.88,1.82,120.88l-199.67-6.39Z"/>
  <circle class="cls-1" cx="787.15" cy="210.5" r="74.45"/>
  <path class="cls-1" d="m1273.99,508.94s16.06-127.84-19.25-154.63c-35.31-26.79-82.96-45.87-127.05-40.52-44.09,5.36-82.2,47.93-84.26,61.73s-2.12,140.87-2.12,140.87l232.68-7.45Z"/>
  <circle class="cls-1" cx="1154.6" cy="212.34" r="86.76"/>
</svg>