<?xml version="1.0" encoding="UTF-8"?>
<svg id="Calque_1" data-name="Calque 1" xmlns="http://www.w3.org/2000/svg" viewBox="0 0 1920 1080">
  <defs>
    <style>
      .cls-1 {
        fill: #2870a0;
      }

      .cls-2 {
        fill: none;
      }

      .cls-3 {
        fill: #44a33d;
      }
    </style>
  </defs>
  <path class="cls-2" d="m1068.5,524.18c-2.77-2.19-5.93-3.91-9.48-5.14-3.56-1.23-7.71-1.84-12.45-1.84-3.42,0-6.74.68-9.95,2.04-3.21,1.36-6.21,3.18-9.02,5.47-2.81,2.28-5.33,4.87-7.57,7.77-2.24,2.9-4.06,5.84-5.47,8.83h67.31c-1.84-3.43-3.84-6.59-5.99-9.49-2.15-2.9-4.61-5.44-7.38-7.64Z"/>
  <path class="cls-2" d="m1442.42,533.92c-3.73-3.86-8.12-6.92-13.17-9.16-5.05-2.24-10.52-3.36-16.4-3.36s-10.91,1.12-15.61,3.36c-4.7,2.24-8.72,5.29-12.05,9.16-3.34,3.86-5.91,8.34-7.71,13.44-1.8,5.09-2.7,10.45-2.7,16.07s.9,11.22,2.7,16.27c1.8,5.05,4.37,9.42,7.71,13.11,3.34,3.69,7.35,6.61,12.05,8.76,4.7,2.15,9.9,3.23,15.61,3.23s11.35-1.07,16.4-3.23c5.05-2.15,9.44-5.07,13.17-8.76,3.73-3.69,6.65-8.06,8.76-13.11,2.11-5.05,3.16-10.47,3.16-16.27s-1.05-10.98-3.16-16.07c-2.11-5.09-5.03-9.57-8.76-13.44Z"/>
  <path class="cls-2" d="m705.39,533.92c-3.73-3.86-8.12-6.92-13.17-9.16-5.05-2.24-10.52-3.36-16.4-3.36s-10.91,1.12-15.61,3.36c-4.7,2.24-8.72,5.29-12.05,9.16-3.34,3.86-5.91,8.34-7.71,13.44-1.8,5.09-2.7,10.45-2.7,16.07s.9,11.22,2.7,16.27c1.8,5.05,4.37,9.42,7.71,13.11,3.34,3.69,7.35,6.61,12.05,8.76,4.7,2.15,9.9,3.23,15.61,3.23s11.35-1.07,16.4-3.23c5.05-2.15,9.44-5.07,13.17-8.76,3.73-3.69,6.65-8.06,8.76-13.11,2.11-5.05,3.16-10.47,3.16-16.27s-1.05-10.98-3.16-16.07c-2.11-5.09-5.03-9.57-8.76-13.44Z"/>
  <path class="cls-2" d="m1842.08,524.18c-2.77-2.19-5.93-3.91-9.48-5.14-3.56-1.23-7.71-1.84-12.45-1.84-3.42,0-6.74.68-9.95,2.04-3.21,1.36-6.21,3.18-9.02,5.47-2.81,2.28-5.33,4.87-7.57,7.77-2.24,2.9-4.06,5.84-5.47,8.83h67.31c-1.84-3.43-3.84-6.59-5.99-9.49-2.15-2.9-4.61-5.44-7.38-7.64Z"/>
  <path class="cls-1" d="m602.09,485.66c1.16-1.53,1.74-3.12,1.74-4.79v-34.56c-.19-2.04-.93-3.56-2.23-4.58-1.3-1.02-2.78-1.53-4.46-1.53h-149.81c-1.86,0-3.41.56-4.66,1.67-1.25,1.11-1.88,2.59-1.88,4.44v34.56c0,2.31.63,4.07,1.88,5.28,1.25,1.2,2.81,1.8,4.66,1.8h47.89v152.45c0,1.86.69,3.42,2.08,4.67,1.39,1.26,2.87,1.88,4.44,1.88h40.83c1.94,0,3.52-.67,4.72-2.02,1.2-1.35,1.81-2.86,1.81-4.53v-152.45h48.03c2.13,0,3.78-.76,4.94-2.29Z"/>
  <path class="cls-1" d="m764.07,481.23c-.97-.97-2.11-1.58-3.42-1.84-1.32-.26-2.46-.4-3.43-.4h-19.63c-1.76,0-3.12.11-4.08.33-.97.22-1.78.66-2.44,1.32s-1.28,1.67-1.85,3.03c-.57,1.36-1.3,3.14-2.17,5.33l-3.82,11.99c-2.37-3.42-5.14-6.61-8.3-9.55-3.16-2.94-6.7-5.47-10.6-7.57-3.91-2.11-8.21-3.77-12.91-5-4.7-1.23-9.77-1.84-15.21-1.84-11.94,0-23.14,2.22-33.59,6.65-10.45,4.44-19.54,10.54-27.27,18.31-7.73,7.77-13.83,16.91-18.31,27.4-4.48,10.49-6.72,21.85-6.72,34.05,0,8.08,1.01,15.83,3.03,23.25,2.02,7.42,4.89,14.34,8.63,20.75,3.73,6.41,8.19,12.23,13.37,17.45,5.18,5.23,10.95,9.7,17.32,13.44,6.37,3.73,13.22,6.61,20.55,8.63,7.33,2.02,14.99,3.03,22.99,3.03,4.48,0,8.8-.55,12.98-1.65,4.17-1.1,8.08-2.55,11.72-4.35,3.64-1.8,6.98-3.84,10.01-6.13,3.03-2.28,5.73-4.61,8.1-6.98l1.71,5.93c.53,1.49,1.03,2.88,1.52,4.15.48,1.27,1.07,2.35,1.78,3.23.7.88,1.63,1.56,2.77,2.04,1.14.48,2.63.73,4.48.73h25.95c.96,0,2.11-.13,3.43-.4,1.32-.26,2.46-.88,3.42-1.84,1.23-.79,2.11-1.87,2.63-3.23.53-1.36.79-2.79.79-4.28v-148.46c0-1.58-.27-2.99-.79-4.22-.53-1.23-1.4-2.32-2.63-3.29Zm-49.92,98.47c-2.11,5.05-5.03,9.42-8.76,13.11-3.73,3.69-8.12,6.61-13.17,8.76-5.05,2.15-10.52,3.23-16.4,3.23s-10.91-1.07-15.61-3.23c-4.7-2.15-8.72-5.07-12.05-8.76-3.34-3.69-5.91-8.06-7.71-13.11-1.8-5.05-2.7-10.47-2.7-16.27s.9-10.98,2.7-16.07c1.8-5.09,4.37-9.57,7.71-13.44,3.34-3.86,7.35-6.92,12.05-9.16,4.7-2.24,9.9-3.36,15.61-3.36s11.35,1.12,16.4,3.36c5.05,2.24,9.44,5.29,13.17,9.16,3.73,3.86,6.65,8.34,8.76,13.44,2.11,5.09,3.16,10.45,3.16,16.07s-1.05,11.22-3.16,16.27Z"/>
  <path class="cls-1" d="m963.9,634.96h.26l-68.1-87.47,54.14-57.17c.97-1.14,1.6-2.02,1.91-2.63.31-.61.46-1.4.46-2.37,0-3.78-2.42-5.67-7.25-5.67h-40.44c-3.16,0-5.88,1.27-8.17,3.82l-47.42,52.69v-97.48c0-.88-.11-1.82-.33-2.83-.22-1.01-.66-1.95-1.32-2.83-.66-.88-1.54-1.6-2.63-2.17-1.1-.57-2.48-.86-4.15-.86h-31.48c-2.55,0-4.52.24-5.93.72-1.4.48-2.44,1.16-3.1,2.04-.66.88-1.03,1.93-1.12,3.16-.09,1.23-.13,2.59-.13,4.08v198.25c0,.18.15.73.46,1.65.31.92.79,1.91,1.45,2.96.66,1.05,1.56,2,2.7,2.83,1.14.84,2.5,1.25,4.08,1.25h33.06c1.84,0,3.34-.4,4.48-1.19,1.14-.79,2.04-1.73,2.7-2.83.66-1.1,1.1-2.22,1.32-3.36.22-1.14.33-2.06.33-2.77v-42.55l14.62-15.15,43.08,60.99c1.58,2.28,3.03,4,4.35,5.14,1.32,1.14,2.72,1.71,4.21,1.71h44.52c2.19,0,3.84-.37,4.94-1.12,1.1-.74,1.65-2.13,1.65-4.15,0-.97-.24-2.04-.73-3.23-.48-1.19-1.3-2.35-2.44-3.49Z"/>
  <path class="cls-1" d="m1117.44,516.86c-3.6-5.84-7.9-11.22-12.91-16.14-5.01-4.92-10.52-9.13-16.53-12.65-6.02-3.51-12.45-6.23-19.3-8.17-6.85-1.93-13.92-2.9-21.21-2.9-7.99,0-15.59,1.05-22.79,3.16-7.2,2.11-13.88,5.05-20.02,8.83-6.15,3.78-11.7,8.32-16.66,13.63-4.96,5.31-9.18,11.13-12.65,17.45-3.47,6.32-6.15,13.11-8.04,20.35-1.89,7.25-2.83,14.73-2.83,22.46,0,12.38,2.37,23.84,7.11,34.38,4.74,10.54,11.15,19.69,19.23,27.46,8.08,7.77,17.48,13.85,28.19,18.24,10.71,4.39,22.08,6.59,34.12,6.59,10.8,0,21.03-2,30.69-5.99,9.66-3.99,18.35-9.55,26.08-16.66,1.32-.97,2.46-2.08,3.42-3.36.97-1.27,1.45-2.79,1.45-4.54,0-.97-.13-1.91-.39-2.83-.26-.92-.88-1.95-1.84-3.1l-13.96-15.81c-1.49-1.49-2.83-2.63-4.02-3.43-1.18-.79-2.35-1.18-3.49-1.18s-2.22.29-3.23.86c-1.01.57-2.22,1.43-3.62,2.57-1.58,1.58-3.67,3.1-6.26,4.54-2.59,1.45-5.45,2.72-8.56,3.82-3.12,1.1-6.35,1.98-9.68,2.63-3.34.66-6.59.99-9.75.99-3.51,0-7.25-.48-11.2-1.45-3.95-.97-7.68-2.57-11.2-4.81-3.51-2.24-6.61-5.25-9.29-9.02-2.68-3.78-4.46-8.47-5.34-14.09h94.85c5.53,0,9.72-.33,12.58-.99,2.85-.66,4.89-1.84,6.13-3.56,1.23-1.71,1.91-4.02,2.04-6.92.13-2.9.2-6.63.2-11.2,0-7.02-.99-13.85-2.96-20.48-1.98-6.63-4.76-12.86-8.36-18.71Zm-102.88,24.44c1.4-2.99,3.23-5.93,5.47-8.83,2.24-2.9,4.76-5.49,7.57-7.77,2.81-2.28,5.82-4.1,9.02-5.47,3.21-1.36,6.52-2.04,9.95-2.04,4.74,0,8.89.62,12.45,1.84,3.56,1.23,6.72,2.94,9.48,5.14,2.77,2.2,5.22,4.74,7.38,7.64,2.15,2.9,4.15,6.06,5.99,9.49h-67.31Z"/>
  <path class="cls-3" d="m1297.37,588.75c-1.11-1.48-2.23-2.32-3.34-2.51-1.11-.18-2.51.23-4.18,1.25-4.55,3.43-9.61,6.1-15.17,8.01-5.57,1.9-11.42,2.85-17.54,2.85-7.61,0-14.62-1.44-21.02-4.32-6.4-2.87-11.93-6.8-16.57-11.76-4.64-4.96-8.26-10.77-10.86-17.4-2.6-6.63-3.9-13.76-3.9-21.37s1.3-14.76,3.9-21.44c2.6-6.68,6.22-12.53,10.86-17.54,4.64-5.01,10.16-8.96,16.57-11.83,6.41-2.88,13.41-4.32,21.02-4.32,6.13,0,11.93.93,17.4,2.78,5.47,1.86,10.49,4.5,15.04,7.94,1.67,1.02,3.08,1.42,4.25,1.18,1.16-.23,2.25-1.13,3.27-2.71l23.53-33.41c1.02-2.04,1.16-3.81.42-5.29-.74-1.48-1.9-2.69-3.48-3.62-8.73-5.85-18.03-10.33-27.91-13.44-9.88-3.11-20.4-4.66-31.53-4.66-9.84,0-19.28,1.28-28.33,3.83-9.05,2.55-17.52,6.13-25.41,10.72-7.89,4.59-15.06,10.14-21.51,16.64-6.45,6.5-12,13.71-16.64,21.65-4.64,7.94-8.21,16.43-10.72,25.48-2.51,9.05-3.76,18.5-3.76,28.33s1.25,19.28,3.76,28.33c2.51,9.05,6.08,17.5,10.72,25.34,4.64,7.85,10.19,14.99,16.64,21.44,6.45,6.45,13.62,12,21.51,16.64,7.89,4.64,16.36,8.21,25.41,10.72,9.05,2.51,18.49,3.76,28.33,3.76,11.14,0,21.74-1.6,31.81-4.8,10.07-3.2,19.47-7.73,28.19-13.58,1.58-.93,2.74-2.09,3.48-3.48.74-1.39.6-3.11-.42-5.15l-23.81-34.25Z"/>
  <path class="cls-3" d="m1501.1,481.23c-.97-.97-2.11-1.58-3.42-1.84-1.32-.26-2.46-.4-3.43-.4h-19.63c-1.76,0-3.12.11-4.08.33-.97.22-1.78.66-2.44,1.32s-1.28,1.67-1.84,3.03c-.57,1.36-1.3,3.14-2.17,5.33l-3.82,11.99c-2.37-3.42-5.14-6.61-8.3-9.55-3.16-2.94-6.7-5.47-10.6-7.57-3.91-2.11-8.21-3.77-12.91-5-4.7-1.23-9.77-1.84-15.21-1.84-11.94,0-23.14,2.22-33.59,6.65-10.45,4.44-19.54,10.54-27.27,18.31-7.73,7.77-13.83,16.91-18.31,27.4-4.48,10.49-6.72,21.85-6.72,34.05,0,8.08,1.01,15.83,3.03,23.25,2.02,7.42,4.89,14.34,8.63,20.75,3.73,6.41,8.19,12.23,13.37,17.45,5.18,5.23,10.95,9.7,17.32,13.44,6.37,3.73,13.22,6.61,20.55,8.63,7.33,2.02,15,3.03,22.99,3.03,4.48,0,8.8-.55,12.98-1.65,4.17-1.1,8.08-2.55,11.72-4.35,3.64-1.8,6.98-3.84,10.01-6.13,3.03-2.28,5.73-4.61,8.1-6.98l1.71,5.93c.53,1.49,1.03,2.88,1.52,4.15.48,1.27,1.07,2.35,1.78,3.23.7.88,1.62,1.56,2.77,2.04,1.14.48,2.63.73,4.48.73h25.95c.97,0,2.11-.13,3.43-.4,1.32-.26,2.46-.88,3.42-1.84,1.23-.79,2.11-1.87,2.63-3.23.53-1.36.79-2.79.79-4.28v-148.46c0-1.58-.26-2.99-.79-4.22-.53-1.23-1.41-2.32-2.63-3.29Zm-49.93,98.47c-2.11,5.05-5.03,9.42-8.76,13.11-3.73,3.69-8.12,6.61-13.17,8.76-5.05,2.15-10.52,3.23-16.4,3.23s-10.91-1.07-15.61-3.23c-4.7-2.15-8.72-5.07-12.05-8.76-3.34-3.69-5.91-8.06-7.71-13.11-1.8-5.05-2.7-10.47-2.7-16.27s.9-10.98,2.7-16.07c1.8-5.09,4.37-9.57,7.71-13.44,3.34-3.86,7.35-6.92,12.05-9.16,4.7-2.24,9.9-3.36,15.61-3.36s11.35,1.12,16.4,3.36c5.05,2.24,9.44,5.29,13.17,9.16,3.73,3.86,6.65,8.34,8.76,13.44,2.11,5.09,3.16,10.45,3.16,16.07s-1.05,11.22-3.16,16.27Z"/>
  <path class="cls-3" d="m1662.34,493.75c-3.87-2.81-7.44-5.27-10.74-7.38s-6.61-3.84-9.94-5.2c-3.34-1.36-6.87-2.39-10.6-3.1-3.73-.7-7.97-1.05-12.71-1.05s-8.63.68-12.19,2.04c-3.56,1.36-6.83,3.14-9.81,5.33-2.99,2.2-5.78,4.7-8.36,7.51-2.59,2.81-5.2,5.67-7.84,8.56-.97-2.28-1.8-4.65-2.5-7.11-.7-2.46-1.52-4.7-2.44-6.72-.92-2.02-2.04-3.69-3.36-5.01s-3.07-1.98-5.27-1.98h-19.89c-1.23,0-2.48.2-3.76.59-1.27.39-2.42.99-3.42,1.78-1.01.79-1.82,1.8-2.44,3.03-.61,1.23-.92,2.68-.92,4.35v147.4c0,6.76,3.42,10.14,10.27,10.14h29.64c3.77,0,6.47-.86,8.1-2.57,1.62-1.71,2.44-4.24,2.44-7.57v-95.37c1.84-2.99,3.69-5.71,5.53-8.17,1.84-2.46,3.82-4.57,5.93-6.32,2.11-1.76,4.46-3.12,7.05-4.08,2.59-.97,5.6-1.45,9.02-1.45,5,0,9.46.9,13.37,2.7,3.91,1.8,7.75,4.55,11.53,8.23,2.19.97,4.17,1.45,5.93,1.45,3.51,0,6.46-1.71,8.83-5.14l11.99-20.42c1.49-2.55,2.24-4.79,2.24-6.72,0-2.99-1.89-5.58-5.66-7.77Z"/>
  <path class="cls-3" d="m1725.96,451.2h-31.88c-1.93,0-3.38.53-4.35,1.58-.97,1.05-1.45,2.46-1.45,4.21v29.24c0,1.76.46,3.16,1.38,4.21.92,1.05,2.26,1.58,4.02,1.58h7.51c1.58.26,2.37,1.18,2.37,2.77v5.8c0,2.72-.59,5.14-1.78,7.24-1.19,2.11-2.5,4-3.95,5.67-1.45,1.67-2.77,3.12-3.95,4.35-1.18,1.23-1.78,2.33-1.78,3.29,0,.7.13,1.43.4,2.17.26.75,1.14,1.65,2.63,2.7l5,3.82c.53.53,1.01.97,1.45,1.32.44.35,1.01.53,1.71.53.18,0,.57-.06,1.19-.2.61-.13,1.25-.28,1.91-.46.66-.18,1.27-.35,1.84-.53.57-.17.9-.31.99-.39,6.85-3.95,12.16-8.8,15.94-14.56,3.78-5.75,5.93-12.05,6.45-18.9.26-3.69.4-7.42.4-11.2v-28.45c0-1.76-.64-3.16-1.91-4.21-1.28-1.05-2.66-1.58-4.15-1.58Z"/>
  <path class="cls-3" d="m1903,535.23c-1.98-6.63-4.76-12.86-8.36-18.71-3.6-5.84-7.9-11.22-12.91-16.14-5.01-4.92-10.52-9.13-16.53-12.65-6.02-3.51-12.45-6.23-19.3-8.17-6.85-1.93-13.92-2.9-21.21-2.9-7.99,0-15.59,1.05-22.79,3.16-7.2,2.11-13.88,5.05-20.02,8.83-6.15,3.78-11.7,8.32-16.66,13.63-4.96,5.31-9.18,11.13-12.65,17.45-3.47,6.32-6.15,13.11-8.04,20.35-1.89,7.25-2.83,14.73-2.83,22.46,0,12.38,2.37,23.84,7.11,34.38,4.74,10.54,11.15,19.69,19.23,27.46,8.08,7.77,17.48,13.85,28.19,18.24,10.71,4.39,22.08,6.59,34.12,6.59,10.8,0,21.03-2,30.69-5.99,9.66-3.99,18.35-9.55,26.08-16.66,1.32-.97,2.46-2.08,3.42-3.36.97-1.27,1.45-2.79,1.45-4.54,0-.97-.13-1.91-.39-2.83-.26-.92-.88-1.95-1.84-3.1l-13.96-15.81c-1.49-1.49-2.83-2.63-4.02-3.43-1.18-.79-2.35-1.18-3.49-1.18s-2.22.29-3.23.86c-1.01.57-2.22,1.43-3.62,2.57-1.58,1.58-3.67,3.1-6.26,4.54-2.59,1.45-5.45,2.72-8.56,3.82-3.12,1.1-6.35,1.98-9.68,2.63-3.34.66-6.59.99-9.75.99-3.51,0-7.25-.48-11.2-1.45-3.95-.97-7.68-2.57-11.2-4.81-3.51-2.24-6.61-5.25-9.29-9.02-2.68-3.78-4.46-8.47-5.34-14.09h94.85c5.53,0,9.72-.33,12.58-.99,2.85-.66,4.89-1.84,6.13-3.56,1.23-1.71,1.91-4.02,2.04-6.92.13-2.9.2-6.63.2-11.2,0-7.02-.99-13.85-2.96-20.48Zm-111.24,5.73c1.4-2.99,3.23-5.93,5.47-8.83,2.24-2.9,4.76-5.49,7.57-7.77,2.81-2.28,5.82-4.1,9.02-5.47,3.21-1.36,6.52-2.04,9.95-2.04,4.74,0,8.89.62,12.45,1.84,3.56,1.23,6.72,2.94,9.48,5.14,2.77,2.2,5.22,4.74,7.38,7.64,2.15,2.9,4.15,6.06,5.99,9.49h-67.31Z"/>
  <path class="cls-2" d="m317.79,503.89c-1.39.38-2.78.75-4.16,1.11,1.36-.16,2.75-.55,4.16-1.11Z"/>
  <path class="cls-2" d="m323.3,543.35c-9.15-.31-18.89,9.97-19.13,20.19-.24,10.2,8.87,20.79,18.19,21.13,11.39.42,21.56-9.87,21.92-22.18.28-9.56-9.82-18.77-20.97-19.15Z"/>
  <path class="cls-2" d="m275.61,573.94c-15.93,5.48-31.95,10.61-48.47,14.06-15.52,3.24-30.7,4.48-46.61.55-17.08-4.22-33.72-9.56-50.37-15.04-2.32-.76-4.91-2.03-6.71.4-1.26,1.69.55,3.24,1.7,4.49,21.05,22.92,45.42,39.52,79.39,41.08,30.41-1.63,54.76-17.65,75.96-39.84,1.49-1.56,3.06-3.57,1.72-5.58-1.82-2.72-4.37-.88-6.61-.11Z"/>
  <path class="cls-2" d="m81.91,543.16c-10.38,0-21.24,10.81-21.12,21.04.12,10.32,11.16,20.89,21.51,20.6,10.11-.28,20.08-10.78,19.94-21-.14-10.32-10.3-20.64-20.32-20.64Z"/>
  <path class="cls-2" d="m93.29,504.79c-1.16-.37-2.19-.71-3.05-.99,1.01.38,2.04.74,3.05.99Z"/>
  <path class="cls-1" d="m370.26,513.01c6.75,0,18.81-13.16,18.3-19.91-.7-9.27-5.17-15.91-15.4-18.6-7.09-1.86-13.94-1.25-20.88-1.39-5.47-.11-8.91-1.05-10.85-7.21-3.44-10.89-8.21-21.36-12.43-32-8.02-20.2-20.65-33.92-43.91-37.41-30.37-4.55-60.9-4.77-91.34-5.09-12.77-.14-25.89.79-38.83,1.51-9.11.51-18.28.99-27.26,2.47-26.36,4.35-46.6,16.36-53.94,44.22-1.69,6.41-5.76,12.25-7.05,18.68-2.5,12.43-9.33,15.72-21.54,15.01-18.9-1.11-27.96,5.66-28.68,18.62-.76,13.72,7.76,20.63,28.09,22.01-1.28,10.42-7.24,18.67-9.19,28.38-8.13,40.48-3.23,81.34-3.77,122-.26,19.43,21.77,30.23,38.73,20.67,10.88-6.13,13.78-16.2,13.65-27.75-.05-4.66-.76-9.43,6.87-8.29,35.2,5.26,70.67,6.09,106.2,6.24,36.96.15,73.86-.66,110.6-4.8,8.28-.93,16.78-5.72,15.72,9.79-1.17,17.05,10.17,28.52,25.35,28.46,14.45-.06,25.44-12.44,25.5-29.05.1-23.93-.26-47.86.11-71.79.34-22.28-1.81-44.07-10.3-64.86-2.76-6.75-2.34-9.9,6.28-9.91Zm-287.04-19.61c6.44-18.84,14.16-37.25,18.43-56.84,1.53-6.99,6.98-11.04,14.52-11.86,28.57-3.1,57.13-6.21,84.98-4.43,28.33-1.45,55.5,1.16,82.7,3.62,11.06,1,17.95,5.5,21.18,16.8,4.81,16.83,10.79,33.35,16.64,49.86,2.05,5.78,2.13,10.94-3.88,13.33-1.41.56-2.8.95-4.16,1.11-111.17,29.48-196.81,7.25-220.34-.22-1-.25-2.03-.62-3.05-.99-2.26-.76-3.42-1.22-3.42-1.22-4.8-1.36-5.12-4.73-3.6-9.18Zm-.92,91.4c-10.35.29-21.39-10.29-21.51-20.6-.12-10.23,10.74-21.05,21.12-21.04,10.03,0,20.18,10.32,20.32,20.64.14,10.22-9.82,20.72-19.94,21Zm198.2-5.18c-21.2,22.19-45.55,38.21-75.96,39.84-33.97-1.56-58.33-18.16-79.39-41.08-1.15-1.25-2.96-2.79-1.7-4.49,1.8-2.42,4.39-1.16,6.71-.4,16.65,5.48,33.29,10.82,50.37,15.04,15.91,3.93,31.09,2.68,46.61-.55,16.53-3.45,32.55-8.58,48.47-14.06,2.24-.77,4.79-2.61,6.61.11,1.34,2-.23,4.02-1.72,5.58Zm41.86,5.05c-9.32-.34-18.43-10.93-18.19-21.13.24-10.22,9.99-20.5,19.13-20.19,11.16.38,21.25,9.59,20.97,19.15-.36,12.31-10.53,22.6-21.92,22.18Z"/>
  <path class="cls-1" d="m126.71,519.37s-3.79-30.19,4.55-36.52c8.34-6.33,19.59-10.83,30.01-9.57,10.41,1.27,19.41,11.32,19.9,14.58s.5,33.27.5,33.27l-54.95-1.76Z"/>
  <circle class="cls-1" cx="154.91" cy="449.32" r="20.49"/>
  <path class="cls-1" d="m288.89,531.45s4.42-35.18-5.3-42.56c-9.72-7.37-22.83-12.62-34.97-11.15-12.13,1.47-22.62,13.19-23.19,16.99s-.58,38.77-.58,38.77l64.04-2.05Z"/>
  <circle class="cls-1" cx="256.03" cy="449.82" r="23.88"/>
</svg>