<?xml version="1.0" encoding="UTF-8"?>
<svg id="Calque_2" data-name="Calque 2" xmlns="http://www.w3.org/2000/svg" viewBox="0 0 467.61 467.66">
  <g id="Calque_1-2" data-name="Calque 1">
    <path d="m174.5,348.99c36.85,0,71.06-11.54,99.23-31.08l30.8,30.8c-2.13,3.7-3.41,7.89-3.41,12.27,0,6.55,2.57,12.71,7.22,17.36l82.15,82.15c4.82,4.82,11.09,7.17,17.36,7.17s12.6-2.41,17.36-7.17l35.22-35.22c9.57-9.57,9.57-25.2,0-34.78l-82.15-82.15c-8.06-8.01-20.27-9.24-29.62-3.81l-30.8-30.8c19.6-28.22,31.08-62.38,31.08-99.23C348.93,78.29,270.64,0,174.43,0,78.23,0,0,78.29,0,174.49s78.29,174.5,174.5,174.5h0Zm154.89-174.5c0,85.4-69.5,154.89-154.89,154.89S19.61,259.89,19.61,174.49,89.1,19.6,174.5,19.6s154.89,69.5,154.89,154.89h0Zm31.59,146.27c1.29,0,2.57.5,3.53,1.46l82.15,82.15c1.96,1.96,1.96,5.1,0,7.05l-35.22,35.22c-1.96,1.9-5.1,1.96-7.05,0l-82.15-82.15c-.95-.95-1.46-2.18-1.46-3.53s.5-2.57,1.46-3.53l35.22-35.22c.95-.95,2.24-1.46,3.53-1.46h0Zm-43.23,13.44l-28.45-28.45c5.82-5.1,11.31-10.59,16.46-16.46l28.45,28.45-16.46,16.46Z"/>
    <path d="m88.98,260.07c23.57,23.57,54.54,35.39,85.57,35.39s61.94-11.82,85.51-35.39c22.85-22.85,35.45-53.2,35.45-85.51s-12.6-62.66-35.45-85.51c-47.15-47.15-123.93-47.15-171.08,0-22.85,22.85-35.45,53.2-35.45,85.51s12.6,62.72,35.45,85.51h0ZM246.23,102.82c19.15,19.15,29.68,44.63,29.68,71.68s-10.53,52.53-29.68,71.68c-39.54,39.54-103.82,39.54-143.36,0-19.15-19.15-29.68-44.57-29.68-71.68s10.53-52.53,29.68-71.68,45.75-29.62,71.68-29.62,51.91,9.86,71.68,29.62h0Z"/>
  </g>
</svg>