<svg data-name="Calque 2" xmlns="http://www.w3.org/2000/svg" viewBox="0 0 467.6 467.6">
                <g id="Calque_1-2" data-name="Calque 1">
                    <path d="m233.8,0C104.89,0,0,104.89,0,233.8s104.89,233.8,233.8,233.8,233.8-104.89,233.8-233.8S362.71,0,233.8,0h0Zm0,448c-118.11,0-214.2-96.1-214.2-214.2S115.69,19.6,233.8,19.6s214.2,96.1,214.2,214.2-96.1,214.2-214.2,214.2h0Z"/>
                    <path d="m233.8,201.49c37.18,0,67.43-30.24,67.43-67.43s-30.24-67.43-67.43-67.43-67.43,30.24-67.43,67.43,30.24,67.43,67.43,67.43Zm0-115.3c26.38,0,47.82,21.45,47.82,47.82s-21.45,47.82-47.82,47.82-47.82-21.45-47.82-47.82,21.45-47.82,47.82-47.82Z"/>
                    <path d="m233.8,221.42c-101.14,0-102.31,94.47-102.31,95.43v51.35c0,3.75,2.13,7.11,5.43,8.79,32.26,15.96,64.68,23.97,97.05,23.97s64.68-8.01,96.66-23.97c3.3-1.68,5.43-5.04,5.43-8.79v-51.35c0-.95-1.18-95.43-102.31-95.43h.05Zm-82.71,140.62v-45.19c0-3.08,1.4-75.88,82.71-75.88s82.66,72.63,82.71,75.82v45.19c-55.33,25.98-109.54,25.98-165.37,0l-.05.05Z"/>
                </g>
            </svg>